<svg xmlns="http://www.w3.org/2000/svg" width="220.766" height="225.437" viewBox="0 0 220.766 225.437">
    <g id="Group_42" data-name="Group 42" transform="translate(-103 -86.604)">
      <path id="Path_5" data-name="Path 5" d="M110.383,0c60.963,0,110.383,50.466,110.383,112.719s-49.42,112.719-110.383,112.719S0,174.972,0,112.719,49.42,0,110.383,0Z" transform="translate(103 86.604)" fill="#fff"/>
      <path id="Icon_awesome-user-alt" data-name="Icon awesome-user-alt" d="M71.979,80.976A40.488,40.488,0,1,0,31.491,40.488,40.5,40.5,0,0,0,71.979,80.976Zm35.989,9H92.476a48.944,48.944,0,0,1-40.994,0H35.989A35.987,35.987,0,0,0,0,125.963v4.5a13.5,13.5,0,0,0,13.5,13.5H130.461a13.5,13.5,0,0,0,13.5-13.5v-4.5A35.987,35.987,0,0,0,107.968,89.973Z" transform="translate(141.404 127.345)" fill="#294fcc"/>
    </g>
  </svg>
  