<svg xmlns="http://www.w3.org/2000/svg" width="220.766" height="225.437" viewBox="0 0 220.766 225.437">
    <g id="Group_41" data-name="Group 41" transform="translate(-103 -86.604)">
      <path id="Path_5" data-name="Path 5" d="M110.383,0c60.963,0,110.383,50.466,110.383,112.719s-49.42,112.719-110.383,112.719S0,174.972,0,112.719,49.42,0,110.383,0Z" transform="translate(103 86.604)" fill="#fff"/>
      <path id="Icon_awesome-database" data-name="Icon awesome-database" d="M109.546,17.885V29.063c0,9.851-24.534,17.885-54.773,17.885S0,38.914,0,29.063V17.885C0,8.034,24.534,0,54.773,0S109.546,8.034,109.546,17.885Zm0,25.151V68.187c0,9.851-24.534,17.885-54.773,17.885S0,78.038,0,68.187V43.036c11.768,8.1,33.306,11.877,54.773,11.877S97.778,51.14,109.546,43.036Zm0,39.124v25.151c0,9.851-24.534,17.885-54.773,17.885S0,117.161,0,107.311V82.16c11.768,8.1,33.306,11.877,54.773,11.877S97.778,90.264,109.546,82.16Z" transform="translate(158.61 136.726)" fill="#294fcc"/>
      <path id="Icon_material-settings" data-name="Icon material-settings" d="M72.825,47.42a31.526,31.526,0,0,0,.283-3.965,31.526,31.526,0,0,0-.283-3.965l8.536-6.675a2.041,2.041,0,0,0,.485-2.589l-8.091-14a2.033,2.033,0,0,0-2.468-.89L61.214,19.385a29.557,29.557,0,0,0-6.837-3.965L52.84,4.7A1.973,1.973,0,0,0,50.858,3H34.675a1.973,1.973,0,0,0-1.982,1.7L31.156,15.42a31.081,31.081,0,0,0-6.837,3.965L14.245,15.339a1.973,1.973,0,0,0-2.468.89l-8.091,14a1.994,1.994,0,0,0,.485,2.589l8.536,6.675a32.083,32.083,0,0,0-.283,3.965,32.083,32.083,0,0,0,.283,3.965L4.172,54.1a2.041,2.041,0,0,0-.485,2.589l8.091,14a2.033,2.033,0,0,0,2.468.89l10.073-4.046a29.557,29.557,0,0,0,6.837,3.965l1.537,10.721a1.973,1.973,0,0,0,1.982,1.7H50.858a1.973,1.973,0,0,0,1.982-1.7l1.537-10.721a31.082,31.082,0,0,0,6.837-3.965l10.073,4.046a1.973,1.973,0,0,0,2.468-.89l8.091-14a2.041,2.041,0,0,0-.485-2.589L72.825,47.42ZM42.767,57.615A14.159,14.159,0,1,1,56.926,43.456,14.175,14.175,0,0,1,42.767,57.615Z" transform="translate(209.977 196.323)" fill="#bcc3b5"/>
    </g>
  </svg>
  